<svg xmlns="http://www.w3.org/2000/svg" width="1880" height="1280" viewBox="0 0 940 640">
  <defs>
    <marker id="arw" markerWidth="9" markerHeight="9" refX="7" refY="4.5" orient="auto"><path d="M0,0 L9,4.5 L0,9 z" fill="#64748B"/></marker>
    <marker id="arwVE" markerWidth="9" markerHeight="9" refX="7" refY="4.5" orient="auto"><path d="M0,0 L9,4.5 L0,9 z" fill="#2563EB"/></marker>
    <marker id="arwVR" markerWidth="9" markerHeight="9" refX="7" refY="4.5" orient="auto"><path d="M0,0 L9,4.5 L0,9 z" fill="#059669"/></marker>
  </defs>
  <rect width="940" height="640" fill="#FFFFFF"/>
  <rect x="60" y="30" width="340" height="96" rx="10" ry="10" fill="#EFF6FF" stroke="#2563EB" stroke-width="1.5"/><text x="230" y="66.92999999999999" font-family="Arial, Helvetica, sans-serif" font-size="15" font-weight="700" fill="#0F172A" text-anchor="middle">VE study data</text><text x="230" y="83.778" font-family="Arial, Helvetica, sans-serif" font-size="11.5" font-weight="400" fill="#64748B" text-anchor="middle">functions · alternatives · scores</text><text x="230" y="99.30300000000001" font-family="Arial, Helvetica, sans-serif" font-size="11.5" font-weight="400" fill="#64748B" text-anchor="middle">business case · scenarios · costs</text><rect x="540" y="30" width="340" height="96" rx="10" ry="10" fill="#ECFDF5" stroke="#059669" stroke-width="1.5"/><text x="710" y="66.92999999999999" font-family="Arial, Helvetica, sans-serif" font-size="15" font-weight="700" fill="#0F172A" text-anchor="middle">Realization data</text><text x="710" y="83.778" font-family="Arial, Helvetica, sans-serif" font-size="11.5" font-weight="400" fill="#64748B" text-anchor="middle">work packages · benefits</text><text x="710" y="99.30300000000001" font-family="Arial, Helvetica, sans-serif" font-size="11.5" font-weight="400" fill="#64748B" text-anchor="middle">KPI targets &amp; actuals · reports</text><rect x="310" y="195" width="320" height="74" rx="10" ry="10" fill="#0F172A" stroke="#0B1220" stroke-width="1.5"/><text x="470" y="228.652" font-family="Arial, Helvetica, sans-serif" font-size="16" font-weight="700" fill="#FFFFFF" text-anchor="middle">Finance &amp; export engine</text><text x="470" y="246.36399999999998" font-family="Arial, Helvetica, sans-serif" font-size="12" font-weight="400" fill="#CBD5E1" text-anchor="middle">ROI · payback · NPV · IRR · LCC</text><line x1="230" y1="126" x2="400" y2="193" stroke="#64748B" stroke-width="2" marker-end="url(#arw)"/><line x1="710" y1="126" x2="540" y2="193" stroke="#64748B" stroke-width="2" marker-end="url(#arw)"/><rect x="95" y="350" width="220" height="66" rx="10" ry="10" fill="#FFFFFF" stroke="#2563EB" stroke-width="1.5"/><text x="205" y="387.158" font-family="Arial, Helvetica, sans-serif" font-size="14" font-weight="700" fill="#0F172A" text-anchor="middle">Business Case</text><line x1="470" y1="271" x2="205" y2="348" stroke="#CBD5E1" stroke-width="2" marker-end="url(#arw)"/><line x1="205" y1="418" x2="470" y2="488" stroke="#CBD5E1" stroke-width="2" marker-end="url(#arw)"/><rect x="345" y="350" width="220" height="66" rx="10" ry="10" fill="#FFFFFF" stroke="#059669" stroke-width="1.5"/><text x="455" y="387.158" font-family="Arial, Helvetica, sans-serif" font-size="14" font-weight="700" fill="#0F172A" text-anchor="middle">VRP / QBR pack</text><line x1="470" y1="271" x2="455" y2="348" stroke="#CBD5E1" stroke-width="2" marker-end="url(#arw)"/><line x1="455" y1="418" x2="470" y2="488" stroke="#CBD5E1" stroke-width="2" marker-end="url(#arw)"/><rect x="595" y="350" width="220" height="66" rx="10" ry="10" fill="#FFFFFF" stroke="#0F172A" stroke-width="1.5"/><text x="705" y="387.158" font-family="Arial, Helvetica, sans-serif" font-size="14" font-weight="700" fill="#0F172A" text-anchor="middle">KPI workbook</text><line x1="470" y1="271" x2="705" y2="348" stroke="#CBD5E1" stroke-width="2" marker-end="url(#arw)"/><line x1="705" y1="418" x2="470" y2="488" stroke="#CBD5E1" stroke-width="2" marker-end="url(#arw)"/><rect x="300" y="490" width="340" height="72" rx="10" ry="10" fill="#0F172A" stroke="#1E40AF" stroke-width="1.5"/><text x="470" y="522.274" font-family="Arial, Helvetica, sans-serif" font-size="17" font-weight="700" fill="#FFFFFF" text-anchor="middle">Export</text><text x="470" y="541.336" font-family="Arial, Helvetica, sans-serif" font-size="13" font-weight="400" fill="#CBD5E1" text-anchor="middle">Word · Excel</text><text x="470" y="610" font-family="Arial, Helvetica, sans-serif" font-size="12.5" font-weight="400" fill="#64748B" text-anchor="middle">Documents assemble from live data — always current, never a blank template.</text>
  </svg>